<svg width="407" height="494" viewBox="0 0 407 494" fill="none" xmlns="http://www.w3.org/2000/svg">
<path fill-rule="evenodd" clip-rule="evenodd" d="M1.00311 0H407V492.938C399.442 488.148 391.827 483.796 384.235 480C334.023 454.894 333.59 405.162 333.223 362.984C333.086 347.204 332.958 332.48 330.235 320.5C320.235 276.5 259.235 217 198.235 199.5C193.471 198.133 188.701 196.794 183.931 195.455C127.636 179.649 71.4863 163.884 27.2352 103.5C7.09834 76.0215 0.839452 36.8925 1.00311 0Z" fill="#F8AF23"/>
<path d="M1.00311 0V-0.5H0.505326L0.503118 -0.00221805L1.00311 0ZM407 0H407.5V-0.5H407V0ZM407 492.938L406.732 493.36L407.5 493.846V492.938H407ZM384.235 480L384.459 479.553L384.235 480ZM333.223 362.984L333.723 362.98L333.223 362.984ZM330.235 320.5L330.723 320.389L330.235 320.5ZM198.235 199.5L198.373 199.019L198.235 199.5ZM183.931 195.455L183.796 195.936L183.931 195.455ZM27.2352 103.5L27.6385 103.204L27.2352 103.5ZM1.00311 0.5H407V-0.5H1.00311V0.5ZM406.5 0V492.938H407.5V0H406.5ZM407.268 492.515C399.697 487.718 392.067 483.357 384.459 479.553L384.012 480.447C391.586 484.234 399.187 488.578 406.732 493.36L407.268 492.515ZM384.459 479.553C334.555 454.601 334.091 405.212 333.723 362.98L332.723 362.989C333.09 405.112 333.49 455.186 384.012 480.447L384.459 479.553ZM333.723 362.98C333.586 347.217 333.46 332.433 330.723 320.389L329.748 320.611C332.456 332.527 332.586 347.191 332.723 362.989L333.723 362.98ZM330.723 320.389C325.691 298.25 307.86 272.291 283.702 249.697C259.534 227.094 228.966 207.796 198.373 199.019L198.097 199.981C228.504 208.704 258.937 227.906 283.019 250.428C307.11 272.959 324.779 298.75 329.748 320.611L330.723 320.389ZM198.373 199.019C193.607 197.652 188.836 196.312 184.066 194.973L183.796 195.936C188.566 197.275 193.335 198.614 198.097 199.981L198.373 199.019ZM184.066 194.973C127.767 179.167 71.7778 163.436 27.6385 103.204L26.8319 103.796C71.1949 164.332 127.505 180.132 183.796 195.936L184.066 194.973ZM27.6385 103.204C7.59712 75.8563 1.3396 36.8594 1.50311 0.00221805L0.503118 -0.00221805C0.3393 36.9256 6.59956 76.1868 26.8319 103.796L27.6385 103.204Z" fill="black"/>
</svg>
